<?xml version="1.0" encoding="UTF-8"?>
<svg xmlns="http://www.w3.org/2000/svg" xmlns:xlink="http://www.w3.org/1999/xlink" width="32px" height="32px" viewBox="0 0 32 32" version="1.1">
<g id="surface1">
<path style=" stroke:none;fill-rule:nonzero;fill:rgb(0%,32.156864%,80.000001%);fill-opacity:1;" d="M 15.8125 0.1875 C 15.8125 3.875 18.828125 6.875 22.460938 6.875 L 25.179688 6.875 L 25.179688 9.492188 C 25.179688 13.1875 28.148438 16.171875 31.8125 16.1875 L 31.8125 1.476562 C 31.8125 0.765625 31.242188 0.1875 30.53125 0.1875 Z M 15.8125 0.1875 "/>
<path style=" stroke:none;fill-rule:nonzero;fill:rgb(0%,32.156864%,80.000001%);fill-opacity:1;" d="M 16.203125 31.882812 C 16.195312 28.1875 13.171875 25.195312 9.539062 25.210938 L 6.820312 25.21875 L 6.8125 22.601562 C 6.796875 18.90625 3.828125 15.929688 0.15625 15.929688 L 0.203125 30.632812 C 0.203125 31.351562 0.773438 31.921875 1.484375 31.921875 Z M 16.203125 31.882812 "/>
<path style=" stroke:none;fill-rule:nonzero;fill:rgb(0%,32.156864%,80.000001%);fill-opacity:1;" d="M 8.8125 7.1875 C 8.8125 10.875 11.828125 13.875 15.460938 13.875 L 18.179688 13.875 L 18.179688 16.492188 C 18.179688 20.1875 21.148438 23.171875 24.8125 23.1875 L 24.8125 8.476562 C 24.8125 7.765625 24.242188 7.1875 23.53125 7.1875 Z M 8.8125 7.1875 "/>
</g>
</svg>
