<?xml version="1.0" encoding="UTF-8"?>
<svg xmlns="http://www.w3.org/2000/svg" xmlns:xlink="http://www.w3.org/1999/xlink" width="128px" height="128px" viewBox="0 0 128 128" version="1.1">
<g id="surface1">
<path style=" stroke:none;fill-rule:nonzero;fill:rgb(0%,32.156864%,80.000001%);fill-opacity:1;" d="M 63.25 0.75 C 63.25 15.5 75.3125 27.5 89.84375 27.5 L 100.71875 27.5 L 100.71875 37.96875 C 100.71875 52.75 112.59375 64.6875 127.25 64.75 L 127.25 5.90625 C 127.25 3.0625 124.96875 0.75 122.125 0.75 Z M 63.25 0.75 "/>
<path style=" stroke:none;fill-rule:nonzero;fill:rgb(0%,32.156864%,80.000001%);fill-opacity:1;" d="M 64.8125 127.53125 C 64.78125 112.75 52.6875 100.78125 38.15625 100.84375 L 27.28125 100.875 L 27.25 90.40625 C 27.1875 75.625 15.3125 63.71875 0.625 63.71875 L 0.8125 122.53125 C 0.8125 125.40625 3.09375 127.6875 5.9375 127.6875 Z M 64.8125 127.53125 "/>
<path style=" stroke:none;fill-rule:nonzero;fill:rgb(0%,32.156864%,80.000001%);fill-opacity:1;" d="M 35.25 28.75 C 35.25 43.5 47.3125 55.5 61.84375 55.5 L 72.71875 55.5 L 72.71875 65.96875 C 72.71875 80.75 84.59375 92.6875 99.25 92.75 L 99.25 33.90625 C 99.25 31.0625 96.96875 28.75 94.125 28.75 Z M 35.25 28.75 "/>
</g>
</svg>
