<?xml version="1.0" encoding="UTF-8"?>
<svg xmlns="http://www.w3.org/2000/svg" xmlns:xlink="http://www.w3.org/1999/xlink" width="64px" height="64px" viewBox="0 0 64 64" version="1.1">
<g id="surface1">
<path style=" stroke:none;fill-rule:nonzero;fill:rgb(0%,32.156864%,80.000001%);fill-opacity:1;" d="M 31.625 0.375 C 31.625 7.75 37.65625 13.75 44.921875 13.75 L 50.359375 13.75 L 50.359375 18.984375 C 50.359375 26.375 56.296875 32.34375 63.625 32.375 L 63.625 2.953125 C 63.625 1.53125 62.484375 0.375 61.0625 0.375 Z M 31.625 0.375 "/>
<path style=" stroke:none;fill-rule:nonzero;fill:rgb(0%,32.156864%,80.000001%);fill-opacity:1;" d="M 32.40625 63.765625 C 32.390625 56.375 26.34375 50.390625 19.078125 50.421875 L 13.640625 50.4375 L 13.625 45.203125 C 13.59375 37.8125 7.65625 31.859375 0.3125 31.859375 L 0.40625 61.265625 C 0.40625 62.703125 1.546875 63.84375 2.96875 63.84375 Z M 32.40625 63.765625 "/>
<path style=" stroke:none;fill-rule:nonzero;fill:rgb(0%,32.156864%,80.000001%);fill-opacity:1;" d="M 17.625 14.375 C 17.625 21.75 23.65625 27.75 30.921875 27.75 L 36.359375 27.75 L 36.359375 32.984375 C 36.359375 40.375 42.296875 46.34375 49.625 46.375 L 49.625 16.953125 C 49.625 15.53125 48.484375 14.375 47.0625 14.375 Z M 17.625 14.375 "/>
</g>
</svg>
