<?xml version="1.0" encoding="UTF-8"?>
<svg xmlns="http://www.w3.org/2000/svg" xmlns:xlink="http://www.w3.org/1999/xlink" width="48px" height="48px" viewBox="0 0 48 48" version="1.1">
<g id="surface1">
<path style=" stroke:none;fill-rule:nonzero;fill:rgb(0%,32.156864%,80.000001%);fill-opacity:1;" d="M 23.71875 0.28125 C 23.71875 5.8125 28.242188 10.3125 33.691406 10.3125 L 37.769531 10.3125 L 37.769531 14.238281 C 37.769531 19.78125 42.222656 24.257812 47.71875 24.28125 L 47.71875 2.214844 C 47.71875 1.148438 46.863281 0.28125 45.796875 0.28125 Z M 23.71875 0.28125 "/>
<path style=" stroke:none;fill-rule:nonzero;fill:rgb(0%,32.156864%,80.000001%);fill-opacity:1;" d="M 24.304688 47.824219 C 24.292969 42.28125 19.757812 37.792969 14.308594 37.816406 L 10.230469 37.828125 L 10.21875 33.902344 C 10.195312 28.359375 5.742188 23.894531 0.234375 23.894531 L 0.304688 45.949219 C 0.304688 47.027344 1.160156 47.882812 2.226562 47.882812 Z M 24.304688 47.824219 "/>
<path style=" stroke:none;fill-rule:nonzero;fill:rgb(0%,32.156864%,80.000001%);fill-opacity:1;" d="M 13.21875 10.78125 C 13.21875 16.3125 17.742188 20.8125 23.191406 20.8125 L 27.269531 20.8125 L 27.269531 24.738281 C 27.269531 30.28125 31.722656 34.757812 37.21875 34.78125 L 37.21875 12.714844 C 37.21875 11.648438 36.363281 10.78125 35.296875 10.78125 Z M 13.21875 10.78125 "/>
</g>
</svg>
