<?xml version="1.0" encoding="UTF-8"?>
<svg xmlns="http://www.w3.org/2000/svg" xmlns:xlink="http://www.w3.org/1999/xlink" width="24px" height="24px" viewBox="0 0 24 24" version="1.1">
<g id="surface1">
<path style=" stroke:none;fill-rule:nonzero;fill:rgb(0%,32.156864%,80.000001%);fill-opacity:1;" d="M 11.859375 0.140625 C 11.859375 2.90625 14.121094 5.15625 16.84375 5.15625 L 18.882812 5.15625 L 18.882812 7.121094 C 18.882812 9.890625 21.109375 12.128906 23.859375 12.140625 L 23.859375 1.109375 C 23.859375 0.574219 23.429688 0.140625 22.898438 0.140625 Z M 11.859375 0.140625 "/>
<path style=" stroke:none;fill-rule:nonzero;fill:rgb(0%,32.156864%,80.000001%);fill-opacity:1;" d="M 12.152344 23.914062 C 12.148438 21.140625 9.878906 18.898438 7.15625 18.90625 L 5.117188 18.914062 L 5.109375 16.953125 C 5.097656 14.179688 2.871094 11.949219 0.117188 11.949219 L 0.152344 22.976562 C 0.152344 23.515625 0.578125 23.941406 1.113281 23.941406 Z M 12.152344 23.914062 "/>
<path style=" stroke:none;fill-rule:nonzero;fill:rgb(0%,32.156864%,80.000001%);fill-opacity:1;" d="M 6.609375 5.390625 C 6.609375 8.15625 8.871094 10.40625 11.59375 10.40625 L 13.632812 10.40625 L 13.632812 12.367188 C 13.632812 15.140625 15.859375 17.378906 18.609375 17.390625 L 18.609375 6.359375 C 18.609375 5.824219 18.179688 5.390625 17.648438 5.390625 Z M 6.609375 5.390625 "/>
</g>
</svg>
