<?xml version="1.0" encoding="UTF-8"?>
<svg xmlns="http://www.w3.org/2000/svg" xmlns:xlink="http://www.w3.org/1999/xlink" width="16px" height="16px" viewBox="0 0 16 16" version="1.1">
<g id="surface1">
<path style=" stroke:none;fill-rule:nonzero;fill:rgb(0%,32.156864%,80.000001%);fill-opacity:1;" d="M 7.90625 0.09375 C 7.90625 1.9375 9.414062 3.4375 11.230469 3.4375 L 12.589844 3.4375 L 12.589844 4.746094 C 12.589844 6.59375 14.074219 8.085938 15.90625 8.09375 L 15.90625 0.738281 C 15.90625 0.382812 15.621094 0.09375 15.265625 0.09375 Z M 7.90625 0.09375 "/>
<path style=" stroke:none;fill-rule:nonzero;fill:rgb(0%,32.156864%,80.000001%);fill-opacity:1;" d="M 8.101562 15.941406 C 8.097656 14.09375 6.585938 12.597656 4.769531 12.605469 L 3.410156 12.609375 L 3.40625 11.300781 C 3.398438 9.453125 1.914062 7.964844 0.078125 7.964844 L 0.101562 15.316406 C 0.101562 15.675781 0.386719 15.960938 0.742188 15.960938 Z M 8.101562 15.941406 "/>
<path style=" stroke:none;fill-rule:nonzero;fill:rgb(0%,32.156864%,80.000001%);fill-opacity:1;" d="M 4.40625 3.59375 C 4.40625 5.4375 5.914062 6.9375 7.730469 6.9375 L 9.089844 6.9375 L 9.089844 8.246094 C 9.089844 10.09375 10.574219 11.585938 12.40625 11.59375 L 12.40625 4.238281 C 12.40625 3.882812 12.121094 3.59375 11.765625 3.59375 Z M 4.40625 3.59375 "/>
</g>
</svg>
