<svg width="128" height="128" xmlns="http://www.w3.org/2000/svg">
 <g>
  <title>Layer 1</title>
  <g transform="matrix(1 0 0 1 1 1)" id="svg_2">
   <path id="svg_1" d="m62.262,-0.262c0,14.768 12.04,26.768 26.592,26.768l10.88,0l0,10.464c0,14.768 11.856,26.704 26.528,26.768l0,-58.832c0,-2.856 -2.296,-5.168 -5.136,-5.168l-58.864,0z" fill="#0052cc"/>
  </g>
  <g transform="rotate(179.843 32.7238 95.6188) matrix(1 0 0 1 1 1)" id="svg_4">
   <path id="svg_3" d="m-0.27624,62.61879c0,14.768 12.04,26.768 26.592,26.768l10.88,0l0,10.464c0,14.768 11.856,26.704 26.528,26.768l0,-58.832c0,-2.856 -2.296,-5.168 -5.136,-5.168l-58.864,0z" fill="#0052cc"/>
  </g>
  <g transform="matrix(1 0 0 1 1 1)" id="svg_6">
   <path id="svg_5" d="m34.262,27.738c0,14.768 12.04,26.768 26.592,26.768l10.88,0l0,10.464c0,14.768 11.856,26.704 26.528,26.768l0,-58.832c0,-2.856 -2.296,-5.168 -5.136,-5.168l-58.864,0z" fill="#0052cc"/>
  </g>
 </g>

</svg>